<svg width="596" height="359" viewBox="0 0 596 359" fill="none" xmlns="http://www.w3.org/2000/svg">
<g clip-path="url(#clip0)">
<path opacity="0.1" d="M198.145 358.798C227.17 358.798 250.699 355.585 250.699 351.62C250.699 347.656 227.17 344.443 198.145 344.443C169.121 344.443 145.591 347.656 145.591 351.62C145.591 355.585 169.121 358.798 198.145 358.798Z" fill="#027373"/>
<path opacity="0.1" d="M483.821 359C520.04 359 549.4 355.786 549.4 351.822C549.4 347.858 520.04 344.644 483.821 344.644C447.603 344.644 418.242 347.858 418.242 351.822C418.242 355.786 447.603 359 483.821 359Z" fill="#027373"/>
<path opacity="0.1" d="M7.46449 155.114H62.2028V218.558H11.4718C11.337 219.21 11.2076 219.865 11.0673 220.521H62.2028V271.688C62.1111 271.665 62.0302 271.637 61.9439 271.61C60.4985 271.124 59.0638 270.61 57.6292 270.06L56.7123 269.706C55.274 269.128 53.8358 268.517 52.3975 267.872C51.8959 267.647 51.3943 267.413 50.8981 267.175C42.9135 263.371 35.66 258.552 29.389 252.883C29.2056 252.732 29.033 252.571 28.8496 252.425C27.9759 251.617 27.1183 250.801 26.2877 249.966L25.3708 249.049C24.3892 248.026 23.44 246.976 22.5177 245.912C22.3828 245.756 22.2534 245.6 22.1132 245.453C18.3623 241.031 15.2478 236.242 12.8364 231.189C12.7609 231.038 12.6962 230.873 12.626 230.731C11.8853 229.11 11.2291 227.474 10.6574 225.823C10.4093 225.131 10.172 224.447 9.96706 223.727C9.89156 223.516 9.82683 223.31 9.7675 223.103C6.70401 212.935 6.34265 202.373 6.34265 191.883C6.34265 190.659 6.34265 189.43 6.34265 188.214C6.34265 183.972 6.40198 179.702 6.48828 175.436C6.48828 174.331 6.54221 173.23 6.56918 172.12C6.64468 169.304 6.75256 166.488 6.89279 163.672C6.92515 162.888 6.96829 162.108 7.01684 161.329C7.01684 160.879 7.0438 160.43 7.09774 159.98C7.22718 158.347 7.33505 156.728 7.46449 155.114Z" fill="#027373"/>
<path opacity="0.1" d="M62.2031 84.4733H32.1776C37.0584 77.9769 42.3913 71.7343 48.1477 65.7789C52.6081 61.1191 57.3166 56.5785 62.2031 52.203V84.4733Z" fill="#027373"/>
<path opacity="0.1" d="M62.203 86.4363V153.151H7.63721C7.63721 152.958 7.67496 152.761 7.69114 152.568C7.73968 152.041 7.78822 151.513 7.84216 150.991C7.90149 150.376 7.96621 149.757 8.03632 149.156C8.10644 148.555 8.18195 147.821 8.26285 147.156C8.34375 146.491 8.41926 145.817 8.51095 145.152C8.60264 144.487 8.68354 143.822 8.78062 143.162C8.8777 142.501 8.964 141.831 9.06648 141.171C9.14738 140.621 9.23367 140.075 9.31997 139.525C9.44402 138.749 9.57346 137.97 9.71369 137.199C9.71369 137.085 9.75145 136.965 9.77302 136.855C10.7574 131.215 12.0988 125.623 13.7912 120.105C15.5627 114.317 17.8249 108.646 20.56 103.136C23.4669 97.3712 26.8704 91.7973 30.7428 86.4592L62.203 86.4363Z" fill="#027373"/>
<path opacity="0.1" d="M75.2711 155.109V218.558H192.185V155.109H75.2711ZM75.2711 220.517V275.004C75.9399 275.123 76.6033 275.238 77.2613 275.334C78.1566 275.481 79.0465 275.614 79.958 275.728C80.1306 275.751 80.3086 275.774 80.4974 275.788C80.8534 275.838 81.2201 275.88 81.5761 275.921C82.4768 276.026 83.3721 276.114 84.2728 276.182C84.6989 276.219 85.1304 276.251 85.5619 276.279L86.6028 276.347C87.1691 276.384 87.73 276.412 88.2856 276.425C88.6307 276.425 88.9759 276.453 89.3319 276.462C89.6016 276.462 89.8712 276.462 90.1517 276.462C90.4322 276.462 90.8313 276.462 91.1711 276.462C91.6349 276.462 92.0987 276.462 92.5572 276.462H93.1774C93.6413 276.462 94.1051 276.462 94.5636 276.425H94.5959C94.9141 276.425 95.2377 276.425 95.5614 276.389C95.6512 276.393 95.7412 276.393 95.831 276.389C96.1007 276.389 96.3704 276.389 96.6293 276.357H96.818L98.6248 276.237C99.2181 276.192 99.8168 276.132 100.421 276.077L101.651 275.953C106.653 275.357 111.601 274.462 116.456 273.275C127.361 270.688 138.03 267.069 148.93 264.418C163.023 261.001 178.594 259.323 192.212 263.501V220.517H75.2711ZM192.185 84.4733V0.00455567C179.385 -0.113373 166.62 1.15974 154.199 3.79297C124.594 10.1177 98.0316 23.8358 75.2711 41.356V84.4687H81.1392V86.4271H75.2711V153.151H192.185V86.4317H105.232V84.4733H192.185ZM342.356 55.9409C335.031 55.7208 327.75 53.7486 321.165 50.7032C308.571 44.8784 298.512 35.8844 287.272 28.2938C263.919 12.4843 234.956 2.94447 205.243 0.577862V84.4733H372.144L372.559 84.1018L342.356 55.9409ZM357.56 53.6477L373.681 68.6913V49.7034C368.282 50.2721 363.552 51.6251 357.582 53.6294L357.56 53.6477ZM373.681 288.534V220.517H339.33C339.238 220.228 339.147 219.934 339.039 219.641C339.141 219.934 339.228 220.228 339.325 220.517H205.265V269.706C206.537 270.509 207.794 271.353 209.04 272.211C210.383 273.128 211.71 274.096 213.042 275.045L214.385 275.99C215.027 276.448 215.674 276.907 216.327 277.338C217.621 278.231 218.928 279.112 220.248 279.98C220.9 280.439 221.569 280.851 222.232 281.283C232.764 288.13 243.874 294.309 255.472 299.771C258.072 300.994 260.695 302.188 263.341 303.353C265.105 304.118 266.88 304.88 268.659 305.618C271.335 306.728 274.031 307.798 276.75 308.829C301.811 318.395 328.312 324.96 355.494 328.335C361.531 329.093 367.592 329.689 373.676 330.124V288.529H374.215L373.681 288.534ZM205.265 86.4317V153.151H373.703V86.4317H205.265ZM205.265 155.109V218.558H373.703V155.109H205.265ZM386.776 49.6208V70.801L407.353 51.6021C400.535 50.6665 393.676 49.9984 386.776 49.5979V49.6208ZM386.776 155.132V218.558H550.603V155.109L386.776 155.132ZM550.004 293.57L550.581 220.517H386.776V330.853C397.329 331.23 407.897 331.123 418.436 330.532H418.619C423.653 330.263 428.664 329.871 433.651 329.358H433.764C460.371 326.725 486.387 320.821 510.999 311.833L550.004 293.57ZM582.193 165.557C581.578 164.323 580.936 163.099 580.283 161.888C579.064 159.595 577.775 157.366 576.449 155.137H563.666V218.558H595.984C595.968 200.598 590.623 182.252 582.209 165.534L582.193 165.557ZM563.666 220.54V283.374C572.77 275.953 580.461 267.464 586 257.759C592.661 246.072 595.709 233.418 595.957 220.53L563.666 220.54ZM563.666 136.644V153.155H575.251C571.747 147.471 567.885 141.952 563.682 136.621L563.666 136.644ZM452.561 62.0684C451.708 61.7933 450.856 61.5135 449.999 61.2429C440.954 58.4026 431.712 56.0407 422.325 54.1706L390.838 83.556L390.234 84.1018L390.638 84.4779H502.704C487.096 75.3419 470.27 67.8118 452.577 62.0455L452.561 62.0684ZM505.988 86.4546H389.074L386.776 88.2433V153.151H406.916H406.948H550.625V121.711C537.628 108.344 522.626 96.4831 506.004 86.4317L505.988 86.4546Z" fill="#027373"/>
<path opacity="0.1" d="M62.203 120.087V153.151H7.63721C7.63721 152.958 7.67496 152.761 7.69114 152.568C7.73968 152.041 7.78822 151.513 7.84216 150.991C7.90149 150.376 7.96621 149.757 8.03632 149.156C8.10644 148.555 8.18195 147.821 8.26285 147.156C8.34375 146.491 8.41926 145.817 8.51095 145.152C8.60264 144.487 8.68354 143.822 8.78062 143.162C8.8777 142.501 8.964 141.831 9.06648 141.171C9.14738 140.621 9.23367 140.075 9.31997 139.525C9.44402 138.749 9.57346 137.97 9.71369 137.199C9.71369 137.085 9.75145 136.965 9.77302 136.855C10.7574 131.215 12.0988 125.623 13.7912 120.105L62.203 120.087Z" fill="#027373"/>
<path opacity="0.1" d="M7.46449 155.114H62.2028V218.558H11.4718C11.337 219.21 11.2076 219.865 11.0673 220.521H62.2028V271.688C62.1111 271.665 62.0302 271.637 61.9439 271.61C60.4985 271.124 59.0638 270.61 57.6292 270.06L56.7123 269.706C55.274 269.128 53.8358 268.517 52.3975 267.872C51.8959 267.647 51.3943 267.413 50.8981 267.175C42.9135 263.371 35.66 258.552 29.389 252.883C29.2056 252.732 29.033 252.571 28.8496 252.425C27.9759 251.617 27.1183 250.801 26.2877 249.966L25.3708 249.049C24.3892 248.026 23.44 246.976 22.5177 245.912C22.3828 245.756 22.2534 245.6 22.1132 245.453C18.3623 241.031 15.2478 236.242 12.8364 231.189C12.7609 231.038 12.6962 230.873 12.626 230.731C11.8853 229.11 11.2291 227.474 10.6574 225.823C10.4093 225.131 10.172 224.447 9.96706 223.727C9.89156 223.516 9.82683 223.31 9.7675 223.103C6.70401 212.935 6.34265 202.373 6.34265 191.883C6.34265 190.659 6.34265 189.43 6.34265 188.214C6.34265 183.972 6.40198 179.702 6.48828 175.436C6.48828 174.331 6.54221 173.23 6.56918 172.12C6.64468 169.304 6.75256 166.488 6.89279 163.672C6.92515 162.888 6.96829 162.108 7.01684 161.329C7.01684 160.879 7.0438 160.43 7.09774 159.98C7.22718 158.347 7.33505 156.728 7.46449 155.114Z" fill="#027373"/>
<path opacity="0.1" d="M116.429 95.9853V153.151H75.2711V95.9853H81.1392V76.6304H105.226V95.9853H116.429Z" fill="#027373"/>
<path opacity="0.1" d="M116.429 155.109H75.2766V218.554H116.429V155.109Z" fill="#027373"/>
<path opacity="0.1" d="M75.2711 220.521H116.429V273.265C111.574 274.452 106.626 275.345 101.624 275.939L100.394 276.068C99.7898 276.127 99.1912 276.178 98.5979 276.228C98.0046 276.279 97.3897 276.315 96.7911 276.348H96.6023C96.3434 276.348 96.0629 276.375 95.8095 276.38H95.5344C95.2108 276.38 94.8872 276.407 94.5636 276.416C94.1051 276.439 93.6467 276.444 93.1774 276.448C92.9779 276.448 92.7891 276.448 92.5895 276.448C92.1257 276.448 91.6673 276.448 91.2034 276.448H90.1841C89.909 276.448 89.6447 276.448 89.3589 276.448L88.3179 276.416C87.7786 276.416 87.1961 276.366 86.6352 276.334L85.5996 276.27L84.3106 276.169C83.4045 276.1 82.5038 276.013 81.6138 275.907L80.5351 275.779L79.9958 275.715C79.0951 275.595 78.2052 275.467 77.2991 275.32C76.6357 275.224 75.9777 275.105 75.3089 274.99L75.2711 220.521Z" fill="#027373"/>
<path opacity="0.1" d="M373.703 89.234H339.767V153.146H373.703V89.234Z" fill="#027373"/>
<path opacity="0.1" d="M373.708 155.109V218.558H205.265V191.191H294.985V207.335H339.767V155.109H373.708Z" fill="#027373"/>
<path opacity="0.1" d="M374.242 288.548H373.703V330.17C367.626 329.732 361.567 329.138 355.527 328.385C328.331 325 301.819 318.421 276.75 308.838C269.512 306.068 262.421 303.044 255.478 299.766C243.88 294.302 232.768 288.123 222.233 281.278C219.586 279.553 216.974 277.789 214.396 275.985C212.611 274.733 210.836 273.449 209.04 272.201C207.794 271.344 206.538 270.5 205.265 269.693V220.521H339.319C339.228 220.228 339.136 219.934 339.039 219.645C339.141 219.934 339.238 220.228 339.33 220.521H373.703V288.52C373.886 288.525 374.064 288.538 374.242 288.548Z" fill="#027373"/>
<path opacity="0.1" d="M462.21 84.4733H440.096V78.6301H450.01V61.2245C450.869 61.4906 451.725 61.7642 452.577 62.0455V78.6301H462.21V84.4733Z" fill="#027373"/>
<path opacity="0.1" d="M515.486 153.151H406.926C406.926 153.151 406.926 153.151 406.964 153.174L406.916 153.151H386.776V89.2386H392.483V136.479H418.56V108.502H440.102V86.4363H462.215V108.52H483.756V136.497H515.486V153.151Z" fill="#027373"/>
<path opacity="0.1" d="M386.776 155.109V218.558H515.486V155.109H386.776ZM550.425 293.244L550.603 243.022H515.486V220.549H386.776V330.853C397.329 331.23 407.897 331.123 418.436 330.532H418.619C423.653 330.263 428.664 329.871 433.651 329.358H433.764C460.371 326.725 486.387 320.821 510.999 311.833" fill="#027373"/>
<path opacity="0.1" d="M565.953 220.521H595.979C595.714 233.405 592.672 246.059 586.017 257.745C580.478 267.454 572.781 275.944 563.688 283.36V242.999H565.953V220.521Z" fill="#027373"/>
<path opacity="0.1" d="M595.995 218.558H565.953V165.534H582.209C590.623 182.252 595.968 200.598 595.995 218.558Z" fill="#027373"/>
<path opacity="0.1" d="M373.708 107.002H355.527V127.04H373.708V107.002Z" fill="#027373"/>
<path opacity="0.1" d="M373.708 148.537H355.527V153.151H373.708V148.537Z" fill="#027373"/>
<path opacity="0.1" d="M373.708 155.109H355.527V168.57H373.708V155.109Z" fill="#027373"/>
<path opacity="0.1" d="M373.708 190.072H355.527V210.11H373.708V190.072Z" fill="#027373"/>
<path opacity="0.1" d="M373.708 231.607H355.527V251.645H373.708V231.607Z" fill="#027373"/>
<path opacity="0.1" d="M373.703 288.52C373.886 288.52 374.064 288.52 374.242 288.548H373.703V293.203H355.527V273.142H373.703V288.52Z" fill="#027373"/>
<path opacity="0.1" d="M373.703 314.667V330.147C367.626 329.709 361.568 329.115 355.527 328.363V314.667H373.703Z" fill="#027373"/>
<path opacity="0.1" d="M283.184 217.086H205.265V218.558H283.184V217.086Z" fill="#027373"/>
<path opacity="0.1" d="M283.184 220.517H205.265V226.158H283.184V220.517Z" fill="#027373"/>
<path opacity="0.1" d="M283.184 244.651H205.265V253.723H283.184V244.651Z" fill="#027373"/>
<path opacity="0.1" d="M283.179 272.215V281.287H222.232C219.586 279.569 216.972 277.805 214.39 275.994C212.605 274.742 210.836 273.458 209.035 272.215H283.179Z" fill="#027373"/>
<path opacity="0.1" d="M283.179 299.775V308.838H276.744C269.514 306.065 262.425 303.039 255.478 299.761L283.179 299.775Z" fill="#027373"/>
<path opacity="0.1" d="M433.781 161.26H418.442V174.304H433.781V161.26Z" fill="#027373"/>
<path opacity="0.1" d="M101.661 100.485H86.3224V113.528H101.661V100.485Z" fill="#027373"/>
<path opacity="0.1" d="M101.661 130.783H86.3224V143.827H101.661V130.783Z" fill="#027373"/>
<path opacity="0.1" d="M101.661 161.081H86.3224V174.125H101.661V161.081Z" fill="#027373"/>
<path opacity="0.1" d="M101.661 191.374H86.3224V204.418H101.661V191.374Z" fill="#027373"/>
<path opacity="0.1" d="M101.661 221.672H86.3224V234.716H101.661V221.672Z" fill="#027373"/>
<path opacity="0.1" d="M101.661 251.971H86.3224V265.014H101.661V251.971Z" fill="#027373"/>
<path opacity="0.1" d="M492.337 161.26H476.999V174.304H492.337V161.26Z" fill="#027373"/>
<path opacity="0.1" d="M433.781 193.434H418.442V206.477H433.781V193.434Z" fill="#027373"/>
<path opacity="0.1" d="M492.337 193.434H476.999V206.477H492.337V193.434Z" fill="#027373"/>
<path opacity="0.1" d="M433.781 225.603H418.442V238.647H433.781V225.603Z" fill="#027373"/>
<path opacity="0.1" d="M492.337 225.603H476.999V238.647H492.337V225.603Z" fill="#027373"/>
<path opacity="0.1" d="M433.781 257.777H418.442V270.821H433.781V257.777Z" fill="#027373"/>
<path opacity="0.1" d="M492.337 257.777H476.999V270.821H492.337V257.777Z" fill="#027373"/>
<path opacity="0.1" d="M433.781 289.951H418.442V302.995H433.781V289.951Z" fill="#027373"/>
<path opacity="0.1" d="M492.337 289.951H476.999V302.995H492.337V289.951Z" fill="#027373"/>
<path opacity="0.1" d="M418.442 330.532V322.12H433.775V329.335L418.442 330.532Z" fill="#027373"/>
<path opacity="0.1" d="M9.70813 136.846V144.308H62.2028V136.846H9.70813ZM14.9398 143.84H10.6574V137.305H14.9722L14.9398 143.84ZM20.1661 143.84H15.8513V137.305H20.1661V143.84ZM25.3816 143.84H21.0668V137.305H25.3816V143.84ZM30.6078 143.84H26.2984V137.305H30.6132L30.6078 143.84ZM35.8287 143.84H31.5139V137.305H35.8287V143.84ZM41.055 143.84H36.7402V137.305H41.055V143.84ZM46.2812 143.84H41.9665V137.305H46.2812V143.84ZM51.5021 143.84H47.1873V137.305H51.5021V143.84ZM56.723 143.84H52.4082V137.305H56.723V143.84ZM61.9439 143.84H57.6291V137.305H61.9439V143.84Z" fill="#027373"/>
<path opacity="0.1" d="M9.70813 158.558V166.02H62.2028V158.558H9.70813ZM14.9398 165.548H10.6574V159.031H14.9722L14.9398 165.548ZM20.1661 165.548H15.8513V159.031H20.1661V165.548ZM25.3816 165.548H21.0668V159.031H25.3816V165.548ZM30.6078 165.548H26.2984V159.031H30.6132L30.6078 165.548ZM35.8287 165.548H31.5139V159.031H35.8287V165.548ZM41.055 165.548H36.7402V159.031H41.055V165.548ZM46.2812 165.548H41.9665V159.031H46.2812V165.548ZM51.5021 165.548H47.1873V159.031H51.5021V165.548ZM56.723 165.548H52.4082V159.031H56.723V165.548ZM61.9439 165.548H57.6291V159.031H61.9439V165.548Z" fill="#027373"/>
<path opacity="0.1" d="M9.70813 180.28V187.756H62.2028V180.28H9.70813ZM14.9398 187.269H10.6574V180.748H14.9722L14.9398 187.269ZM20.1661 187.269H15.8513V180.748H20.1661V187.269ZM25.3816 187.269H21.0668V180.748H25.3816V187.269ZM30.6078 187.269H26.2984V180.748H30.6132L30.6078 187.269ZM35.8287 187.269H31.5139V180.748H35.8287V187.269ZM41.055 187.269H36.7402V180.748H41.055V187.269ZM46.2812 187.269H41.9665V180.748H46.2812V187.269ZM51.5021 187.269H47.1873V180.748H51.5021V187.269ZM56.723 187.269H52.4082V180.748H56.723V187.269ZM61.9439 187.269H57.6291V180.748H61.9439V187.269Z" fill="#027373"/>
<path opacity="0.1" d="M9.70813 202.001V209.454H62.2028V202.001H9.70813ZM14.9398 208.991H10.6574V202.464H14.9722L14.9398 208.991ZM20.1661 208.991H15.8513V202.464H20.1661V208.991ZM25.3816 208.991H21.0668V202.464H25.3816V208.991ZM30.6078 208.991H26.2984V202.464H30.6132L30.6078 208.991ZM35.8287 208.991H31.5139V202.464H35.8287V208.991ZM41.055 208.991H36.7402V202.464H41.055V208.991ZM46.2812 208.991H41.9665V202.464H46.2812V208.991ZM51.5021 208.991H47.1873V202.464H51.5021V208.991ZM56.723 208.991H52.4082V202.464H56.723V208.991ZM61.9439 208.991H57.6291V202.464H61.9439V208.991Z" fill="#027373"/>
<path opacity="0.1" d="M9.93494 223.718C10.1453 224.42 10.3826 225.121 10.6307 225.814V224.186H14.9455V230.708H12.6371C12.7072 230.859 12.7773 231.024 12.8474 231.166H62.2031V223.718H9.93494ZM20.1825 230.708H15.8678V224.186H20.1825V230.708ZM25.398 230.708H21.0832V224.186H25.398V230.708ZM30.6243 230.708H26.2987V224.186H30.6135L30.6243 230.708ZM35.8452 230.708H31.5304V224.186H35.8452V230.708ZM41.0714 230.708H36.7567V224.186H41.0714V230.708ZM46.2977 230.708H41.9829V224.186H46.2977V230.708ZM51.5186 230.708H47.2038V224.186H51.5186V230.708ZM56.7395 230.708H52.4247V224.186H56.7395V230.708ZM61.9604 230.708H57.6456V224.186H61.9604V230.708Z" fill="#027373"/>
<path opacity="0.1" d="M22.124 245.439C22.2589 245.586 22.3883 245.751 22.5285 245.898H25.3817V249.031C25.6891 249.343 25.9911 249.654 26.304 249.948V245.88H30.6187V252.425H28.8713C29.0438 252.576 29.211 252.736 29.4106 252.883H62.2191V245.439H22.124ZM35.8288 252.425H31.5141V245.907H35.8288V252.425ZM41.0551 252.425H36.7403V245.907H41.0551V252.425ZM46.2814 252.425H41.9666V245.907H46.2814V252.425ZM51.5022 252.425H47.1875V245.907H51.5022V252.425ZM56.7231 252.425H52.4084V245.907H56.7231V252.425ZM61.944 252.425H57.6292V245.907H61.944V252.425Z" fill="#027373"/>
<path opacity="0.1" d="M50.9199 267.156C51.4107 267.395 51.9123 267.615 52.4193 267.853V267.624H56.7341V269.688L57.651 270.05V267.624H61.9658V271.591C62.0485 271.626 62.1352 271.654 62.2246 271.674V267.156H50.9199Z" fill="#027373"/>
<path opacity="0.1" d="M406.927 153.151H406.959H406.927ZM373.703 288.515H374.242H373.703ZM339.039 219.641C339.141 219.934 339.228 220.228 339.325 220.517C339.239 220.228 339.147 219.934 339.039 219.641ZM406.927 153.137H406.959H406.927ZM81.161 84.4595V86.4179H105.254V84.4595H81.161ZM373.703 288.515H374.242H373.703ZM339.039 219.641C339.141 219.934 339.228 220.228 339.325 220.517C339.239 220.228 339.147 219.934 339.039 219.641ZM406.927 153.137H406.959H406.927ZM373.703 288.502H374.242H373.703ZM339.039 219.641C339.141 219.934 339.228 220.228 339.325 220.517C339.239 220.228 339.147 219.934 339.039 219.641Z" fill="#027373"/>
<path d="M248.963 174.134C248.963 174.134 246.838 173.882 246.838 171.249C246.838 168.616 245.317 163.7 245.317 163.7C245.317 163.677 244.001 155.137 242.183 153.779C240.365 152.422 238.03 144.45 238.03 144.45C238.03 144.45 237.631 140.125 236.817 139.194C236.002 138.263 234.902 135.984 233.278 132.732C231.655 129.48 224.886 127.228 224.886 127.228C224.886 127.228 212.648 121.192 209.18 119.225C208.865 119.063 208.571 118.874 208.301 118.661C207.697 117.986 205.065 117.973 205.065 117.973C204.79 116.496 204.526 114.799 204.44 113.262C204.44 113.097 204.44 112.932 204.413 112.767C208.28 110.823 211.192 107.758 212.616 104.135C212.681 103.961 212.735 103.778 212.794 103.603C213.026 103.538 213.239 103.433 213.42 103.294C213.601 103.155 213.746 102.986 213.846 102.796C214.159 102.205 214.164 101.512 214.552 100.962C215.005 100.31 215.868 99.9617 216.548 99.471C218.263 98.2327 218.705 96.1458 218.624 94.247C218.57 92.7106 218.279 91.1603 218.392 89.633L218.425 89.2478C218.457 89.0185 218.495 88.7891 218.543 88.569C218.808 87.4316 219.385 86.3583 219.708 85.2301C220.032 84.1018 220.064 82.8313 219.309 81.859C218.204 80.4326 215.901 80.1483 213.878 80.0015C211.586 79.8364 209.536 80.0519 208.069 78.4329C207.383 77.5867 206.61 76.7933 205.761 76.0617C205.459 75.8232 202.525 74.3005 202.525 74.1996C199.661 73.0718 196.415 72.8601 193.383 73.6034C191.862 73.9795 190.427 74.5941 188.885 74.9014C185.557 75.571 181.728 74.8463 178.902 76.4653C177.327 77.3826 176.383 78.8411 175.498 80.2629C174.779 81.434 174.049 82.6035 173.308 83.7716C172.117 85.6933 170.903 87.6471 170.401 89.7752C170.296 90.2383 170.231 90.7074 170.207 91.1787V91.2016C170.207 91.3713 170.207 91.541 170.207 91.7107V91.9263C170.207 92.0868 170.207 92.2427 170.24 92.3849C170.272 92.5271 170.267 92.573 170.283 92.6693C170.299 92.7656 170.326 92.9812 170.358 93.1279C170.391 93.2747 170.455 93.5315 170.52 93.7333C170.547 93.8205 170.585 93.903 170.617 93.9856C170.671 94.1415 170.736 94.2929 170.806 94.4442C170.844 94.5222 170.881 94.6048 170.925 94.6827C171.005 94.8433 171.103 94.9992 171.2 95.1414C171.243 95.2056 171.275 95.2652 171.318 95.3248C171.469 95.5381 171.634 95.7434 171.814 95.9394C172.969 97.164 174.668 97.9437 175.924 99.0903C175.924 99.1362 175.924 99.182 175.924 99.2233C175.924 99.3517 175.924 99.4756 175.924 99.604C175.991 102.161 176.791 104.666 178.256 106.9C179.72 109.134 181.805 111.03 184.327 112.423C184.327 112.597 184.354 112.776 184.365 112.951C184.47 114.312 184.45 115.678 184.306 117.037C184.086 116.817 183.811 116.642 183.501 116.524C183.191 116.407 182.854 116.35 182.515 116.358C182.283 116.349 182.051 116.366 181.825 116.409L181.776 116.377V116.418C180.59 116.666 179.128 117.716 177.731 120.702C177.731 120.702 173.481 124.774 170.245 124.605C167.009 124.435 158.816 128.843 158.816 128.843C158.816 128.843 150.823 133.255 149.108 137.75C148.149 140.298 147 142.792 145.667 145.216L135.786 162.53L133.963 176.267C133.963 176.267 134.972 182.376 134.772 183.307C134.573 184.238 138.92 192.636 138.92 192.636C138.92 192.636 153.283 214.096 159.151 215.196L159.571 214.944C159.822 215.056 160.089 215.14 160.364 215.196L161.572 214.472C161.645 215.279 161.614 216.091 161.481 216.893C160.672 219.012 161.783 232.84 163.196 235.551C164.609 238.262 164.107 273.802 164.107 273.802L163.908 276.939C163.908 276.939 163.908 277.04 163.956 277.214L163.908 277.957L164.053 278.022C164.205 279.017 164.155 280.026 163.908 281.007C163.401 282.383 163.196 286.273 163.196 286.273C163.196 286.273 159.156 308.233 161.071 312.645C162.985 317.057 164.614 321.891 164.614 321.891C164.614 321.891 166.637 327.395 164.711 328.335C162.786 329.275 157.311 330.853 158.439 333.146C159.463 335.265 163.352 340.943 163.929 341.773L163.881 342.209L163.088 349.515C163.216 350.48 163.524 351.421 163.999 352.304C164.868 353.895 166.556 355.546 169.765 355.368C170.304 355.335 170.93 355.28 171.534 355.212C177.408 354.542 184.64 352.313 184.64 352.313C184.265 352.11 183.92 351.868 183.615 351.593C183.327 351.355 183.098 351.07 182.943 350.754C182.788 350.439 182.711 350.1 182.715 349.758C182.801 348.428 179.872 342.09 179.144 340.53C179.031 340.306 178.972 340.177 178.972 340.177C178.972 340.177 185.649 334.242 184.538 328.982C184.538 328.982 177.149 325.313 179.581 323.299C182.014 321.286 186.361 315.502 186.361 315.502C186.361 315.502 186.56 293.877 186.361 290.648C186.153 288.407 186.278 286.153 186.733 283.938C186.814 283.603 186.911 283.278 187.013 282.957C190.377 283.384 193.773 283.603 197.175 283.612C198.415 283.612 199.677 283.612 200.95 283.548C200.95 283.854 200.966 284.184 200.999 284.539C201.279 289.896 201.802 299.289 202.228 302.779C202.832 307.783 206.171 321.267 206.171 321.267C206.171 321.267 199.801 324.744 207.282 333.311C207.282 333.311 207.282 336.416 206.786 336.866C206.256 338.335 205.829 339.83 205.507 341.342C205.195 342.957 205.065 344.589 205.572 345.438C206.786 347.465 214.067 347.3 214.067 347.3L214.245 347.272C215.619 347.152 217.009 347.264 218.332 347.603C219.655 347.943 220.885 348.502 221.952 349.249C224.719 351.139 235.22 350.309 240.905 349.708C243.132 349.469 244.621 349.249 244.621 349.249C244.693 349.035 244.719 348.811 244.696 348.589C244.637 347.401 243.542 344.796 236.121 342.47C236.121 342.47 229.142 338.48 229.239 335.004H229.093H228.284C228.872 334.976 229.25 335.004 229.25 335.004C229.25 335.004 226.515 326.519 227.631 325.831C228.748 325.143 225.404 315.741 225.404 315.741C225.404 315.741 223.489 299.963 223.387 298.858C223.391 297.909 223.56 296.967 223.888 296.06L223.387 287.41C223.387 287.41 223.29 284.534 223.387 283.599C223.37 282.787 223.293 281.976 223.155 281.172C223.106 280.851 223.058 280.517 223.004 280.186C225.62 279.622 227.319 279.099 227.319 279.099L227.017 248.989C229.239 245.32 229.649 237.271 229.638 231.561C229.638 227.892 229.444 225.176 229.444 225.176L232.48 220.962C232.48 220.962 233.181 215.916 232.07 214.811C231.579 214.311 231.801 213.793 232.205 213.366C232.415 213.225 232.637 213.096 232.869 212.981C232.869 212.981 232.836 212.94 232.798 212.88C233.01 212.73 233.236 212.593 233.473 212.472C233.473 212.472 232.394 211.05 233.359 210.449C234.265 210.972 235.074 211.367 235.689 211.688C235.646 212.023 235.603 212.215 235.603 212.215L235.862 211.757C236.455 212.041 236.817 212.215 236.817 212.215C236.817 212.215 241.574 204.157 241.471 202.969C241.369 201.781 244.707 196.777 244.707 196.777C244.707 196.777 245.112 194.149 246.935 193.048C248.758 191.948 248.348 183.972 248.348 183.972C248.348 183.972 248.855 179.816 250.068 178.119C251.282 176.422 248.963 174.134 248.963 174.134ZM157.942 170.598L158.034 172.519C157.495 171.781 157.107 171.249 157.107 171.249L157.942 170.598Z" fill="url(#paint0_linear)"/>
<path d="M237.075 208.734L235.91 212.954C235.91 212.954 226.58 208.904 224.897 203.758C223.214 198.612 227.712 196.658 227.712 196.658L236.407 199.79L237.075 208.734Z" fill="white"/>
<path opacity="0.1" d="M237.075 208.734L235.91 212.954C235.91 212.954 226.58 208.904 224.897 203.758C223.214 198.612 227.712 196.658 227.712 196.658L236.407 199.79L237.075 208.734Z" fill="black"/>
<path d="M184.71 352.34C184.71 352.34 176.08 355.037 170.148 355.377C166.998 355.556 165.342 353.914 164.49 352.331C164.024 351.452 163.724 350.515 163.6 349.557L164.371 342.287L164.781 338.416L177.386 335.632L179.171 340.274L179.338 340.627C180.055 342.177 182.93 348.483 182.844 349.8C182.84 350.137 182.917 350.471 183.069 350.782C183.221 351.093 183.445 351.375 183.728 351.611C184.018 351.889 184.348 352.134 184.71 352.34Z" fill="white"/>
<path d="M243.655 348.644C243.677 348.864 243.651 349.087 243.58 349.3C243.58 349.3 225.123 351.919 221.348 349.3C220.284 348.535 219.043 347.967 217.705 347.634C216.368 347.301 214.963 347.209 213.581 347.364C213.581 347.364 206.44 347.529 205.248 345.53C204.752 344.69 204.882 343.062 205.189 341.457C205.503 339.953 205.921 338.466 206.44 337.003L206.726 336.811L208.425 335.65L228.316 335.15H228.467C228.37 338.609 235.22 342.576 235.22 342.576C242.496 344.869 243.569 347.46 243.655 348.644Z" fill="white"/>
<path opacity="0.1" d="M243.655 348.644C243.674 348.865 243.647 349.087 243.575 349.3C243.575 349.3 225.123 351.919 221.348 349.3C220.284 348.535 219.044 347.968 217.708 347.635C216.371 347.302 214.968 347.209 213.587 347.364C213.587 347.364 206.44 347.529 205.254 345.53C204.758 344.686 204.882 343.062 205.189 341.457C207.94 341.691 212.282 342.273 213.986 343.663C216.564 345.777 220.933 347.887 223.613 348.052C225.711 348.167 238.262 348.506 243.655 348.644Z" fill="black"/>
<path opacity="0.1" d="M184.71 352.34C184.71 352.34 176.081 355.037 170.148 355.377C166.998 355.556 165.342 353.914 164.495 352.327C166.691 352.955 169.738 353.616 171.34 353.01C173.238 352.295 179.969 351.831 183.745 351.634C184.032 351.902 184.356 352.139 184.71 352.34Z" fill="black"/>
<path d="M197.514 135.011C190.395 132.659 181.237 124.885 183.524 121.252C184.032 120.335 184.333 119.346 184.414 118.335C184.561 116.963 184.582 115.583 184.478 114.207C184.318 111.955 183.999 109.713 183.524 107.493C183.524 107.493 205.75 107.919 204.456 110.703C204.078 111.52 204.019 112.937 204.121 114.524C204.224 116.111 204.493 117.904 204.774 119.422C205.162 121.504 205.551 123.091 205.551 123.091C205.551 123.091 204.191 124.71 203.393 124.797C202.595 124.885 207.73 138.364 197.514 135.011Z" fill="#CF6F80"/>
<path opacity="0.1" d="M179.322 340.627L179.155 340.783C172.51 333.949 164.474 342.466 164.474 342.466L164.355 342.287L164.765 338.416L177.37 335.632L179.155 340.274L179.322 340.627Z" fill="black"/>
<path opacity="0.1" d="M228.473 335.632C228.473 335.632 223.619 335.545 221.03 337.49C218.441 339.434 205.928 337.911 206.467 337.49C206.627 337.28 206.724 337.041 206.748 336.792L208.447 335.632L228.338 335.132C228.413 335.439 228.473 335.632 228.473 335.632Z" fill="black"/>
<path d="M187.59 281.966C187.229 282.726 186.954 283.514 186.771 284.319C186.321 286.523 186.196 288.766 186.398 290.997C186.598 294.207 186.398 315.722 186.398 315.722C186.398 315.722 182.132 321.46 179.754 323.482C177.375 325.505 184.608 329.138 184.608 329.138C185.686 334.366 179.15 340.273 179.15 340.273C172.505 333.44 164.469 341.961 164.469 341.961C164.469 341.961 160.1 335.54 159.01 333.247C157.921 330.954 163.277 329.367 165.159 328.436C167.041 327.505 165.067 322.015 165.067 322.015C165.067 322.015 163.476 317.204 161.588 312.814C159.701 308.425 163.67 286.575 163.67 286.575C163.67 286.575 163.875 282.695 164.366 281.342C164.614 280.366 164.663 279.361 164.512 278.37C164.479 278.035 164.442 277.756 164.415 277.568C164.388 277.379 164.366 277.292 164.366 277.292L164.442 277.182L167.138 272.908C167.138 272.908 188.885 279.274 187.59 281.966Z" fill="#027373"/>
<path d="M228.473 335.128C228.473 335.128 223.619 335.04 221.03 336.962C218.441 338.884 205.928 337.384 206.467 336.962C207.007 336.54 206.964 333.417 206.964 333.417C199.623 324.895 205.885 321.437 205.885 321.437C205.885 321.437 202.606 308.022 202.012 303.045C201.597 299.569 201.085 290.226 200.81 284.892C200.691 282.599 200.621 281.021 200.621 281.021L206.618 279.994L207.39 279.861L221.855 277.393C221.855 277.393 222.254 279.686 222.524 281.562C222.658 282.363 222.734 283.17 222.75 283.979C222.653 284.897 222.75 287.768 222.75 287.768L223.241 296.377C222.92 297.28 222.755 298.217 222.75 299.161C222.847 300.257 224.73 315.952 224.73 315.952C224.73 315.952 228.004 325.317 226.887 325.991C225.771 326.666 228.473 335.128 228.473 335.128Z" fill="#027373"/>
<path opacity="0.1" d="M204.456 110.703C204.078 111.52 204.019 112.937 204.121 114.524C201.144 116.048 197.722 116.828 194.247 116.773C190.772 116.717 187.386 115.83 184.478 114.212C184.318 111.958 183.999 109.714 183.524 107.493C183.524 107.493 205.75 107.91 204.456 110.703Z" fill="black"/>
<path d="M213.047 100.567C213.052 102.22 212.746 103.863 212.141 105.433C210.79 108.953 208.019 111.953 204.318 113.903C200.618 115.853 196.225 116.628 191.918 116.091C187.61 115.554 183.664 113.739 180.778 110.967C177.892 108.195 176.251 104.644 176.145 100.943C176.145 100.815 176.145 100.696 176.145 100.567C176.103 98.4838 176.55 96.4142 177.458 94.4791C178.367 92.544 179.72 90.7821 181.437 89.2962C183.155 87.8103 185.204 86.6301 187.463 85.8245C189.723 85.0189 192.149 84.604 194.599 84.604C197.049 84.604 199.475 85.0189 201.735 85.8245C203.995 86.6301 206.043 87.8103 207.761 89.2962C209.479 90.7821 210.831 92.544 211.74 94.4791C212.648 96.4142 213.095 98.4838 213.053 100.567H213.047Z" fill="#CF6F80"/>
<path opacity="0.1" d="M197.514 135.011C190.395 132.659 181.237 124.885 183.524 121.252C184.032 120.335 184.333 119.346 184.414 118.335L194.16 125.146L200.189 129.352L204.774 119.427C205.162 121.509 205.551 123.096 205.551 123.096C205.551 123.096 204.191 124.715 203.393 124.802C202.595 124.889 207.73 138.364 197.514 135.011Z" fill="black"/>
<path d="M222.718 165.112L214.579 281.379L203.965 281.971L176.48 214.554L180.989 134.516L181.938 117.606L194.16 126.141L200.195 130.347L204.914 120.133L213.689 126.637L222.718 165.112Z" fill="#027373"/>
<path opacity="0.1" d="M187.59 281.966C187.229 282.726 186.954 283.514 186.77 284.319C179.047 283.305 171.546 281.312 164.517 278.407L164.371 278.343L164.42 277.604L164.447 277.219L167.144 272.944C167.144 272.944 188.885 279.274 187.59 281.966Z" fill="black"/>
<path opacity="0.1" d="M206.743 284.337C204.768 284.623 202.777 284.816 200.777 284.915C200.659 282.622 200.589 281.044 200.589 281.044L206.586 280.017L206.743 284.337Z" fill="black"/>
<path opacity="0.1" d="M222.492 281.585C218.657 282.434 212.735 283.388 207.433 282.792L207.357 279.884L221.823 277.416C221.823 277.416 222.222 279.686 222.492 281.585Z" fill="black"/>
<path opacity="0.1" d="M207.336 283.324C185.223 286.534 164.97 277.329 164.97 277.329L165.164 274.21C165.164 274.21 165.666 238.853 164.274 236.143C162.883 233.432 161.799 219.686 162.586 217.577C163.374 215.467 159.711 183.83 159.711 183.83L159.118 170.988L137.404 163.507L147.112 146.299C148.424 143.886 149.551 141.404 150.489 138.869C152.177 134.401 160.013 130.012 160.013 130.012C160.013 130.012 168.05 125.627 171.226 125.793C174.403 125.958 178.567 121.912 178.567 121.912C181.641 115.248 184.424 118.266 184.424 118.266C184.424 118.583 184.424 118.266 184.273 119.252C183.195 126.568 201.716 149.683 201.98 150.092L203.744 186.627L205.529 232.863L207.336 283.324Z" fill="black"/>
<path d="M206.743 283.324C184.629 286.534 164.371 277.329 164.371 277.329L164.571 274.21C164.571 274.21 165.073 238.853 163.676 236.143C162.279 233.432 161.2 219.687 161.993 217.577C162.786 215.467 159.118 183.83 159.118 183.83L158.52 170.988L136.795 163.48L146.503 146.271C147.811 143.857 148.939 141.376 149.879 138.841C151.562 134.374 159.404 129.985 159.404 129.985C159.404 129.985 167.44 125.6 170.612 125.765C173.783 125.93 177.952 121.885 177.952 121.885C181.032 115.221 184.424 118.239 184.424 118.239C184.424 118.555 184.101 118.697 184.273 119.225C186.647 126.32 201.123 149.656 201.387 150.064L203.172 186.6L204.957 232.836L206.743 283.324Z" fill="white"/>
<path opacity="0.1" d="M200.783 151.105C198.404 150.261 185.805 138.029 185.805 138.029V135.245C185.347 134.328 182.623 134.888 180.412 135.53L181.361 118.619L182.44 119.381C184.802 126.471 200.508 150.697 200.783 151.105Z" fill="black"/>
<path d="M201.381 150.092C198.997 149.248 186.398 137.016 186.398 137.016V134.232C185.94 133.314 183.216 133.874 181.005 134.516L181.959 117.606L183.038 118.367C185.406 125.458 201.117 149.688 201.381 150.092Z" fill="white"/>
<path opacity="0.1" d="M164.97 211.096C165.267 211.096 180.347 209.748 180.347 209.748C180.347 209.748 189.478 225.016 188.879 228.731C188.281 232.446 187.196 235.735 183.523 235.152C179.851 234.57 163.756 235.611 163.756 235.611L164.97 211.096Z" fill="black"/>
<path d="M164.371 210.082C164.668 210.082 179.748 208.734 179.748 208.734C179.748 208.734 188.874 224.007 188.281 227.717C187.687 231.428 186.592 234.721 182.925 234.138C179.257 233.556 163.158 234.597 163.158 234.597L164.371 210.082Z" fill="white"/>
<path d="M175.735 202.914C175.735 202.914 189.575 209.239 189.872 211.169C190.168 213.1 182.828 210.326 181.242 209.991C180.198 209.777 179.136 209.636 178.065 209.569L167.489 209.812L175.735 202.914Z" fill="#CF6F80"/>
<path opacity="0.1" d="M196.921 151.894C197.725 151.894 198.377 151.34 198.377 150.656C198.377 149.972 197.725 149.417 196.921 149.417C196.117 149.417 195.465 149.972 195.465 150.656C195.465 151.34 196.117 151.894 196.921 151.894Z" fill="black"/>
<path d="M196.921 151.39C197.725 151.39 198.377 150.835 198.377 150.151C198.377 149.467 197.725 148.913 196.921 148.913C196.117 148.913 195.465 149.467 195.465 150.151C195.465 150.835 196.117 151.39 196.921 151.39Z" fill="#3F3D56"/>
<path opacity="0.1" d="M199.602 205.501C200.406 205.501 201.058 204.946 201.058 204.262C201.058 203.578 200.406 203.024 199.602 203.024C198.797 203.024 198.145 203.578 198.145 204.262C198.145 204.946 198.797 205.501 199.602 205.501Z" fill="black"/>
<path d="M199.602 204.992C200.406 204.992 201.058 204.437 201.058 203.753C201.058 203.069 200.406 202.515 199.602 202.515C198.797 202.515 198.145 203.069 198.145 203.753C198.145 204.437 198.797 204.992 199.602 204.992Z" fill="#3F3D56"/>
<path opacity="0.1" d="M198.372 178.697C199.176 178.697 199.828 178.143 199.828 177.459C199.828 176.775 199.176 176.221 198.372 176.221C197.568 176.221 196.916 176.775 196.916 177.459C196.916 178.143 197.568 178.697 198.372 178.697Z" fill="black"/>
<path d="M198.372 178.193C199.176 178.193 199.828 177.638 199.828 176.955C199.828 176.271 199.176 175.716 198.372 175.716C197.568 175.716 196.916 176.271 196.916 176.955C196.916 177.638 197.568 178.193 198.372 178.193Z" fill="#3F3D56"/>
<path d="M231.941 209.312C231.941 209.312 232.933 210.578 231.941 211.169C230.949 211.761 232.038 213.192 232.038 213.192C232.038 213.192 229.562 214.426 230.652 215.536C231.741 216.646 231.051 221.659 231.051 221.659L228.074 225.851C228.074 225.851 228.252 228.552 228.263 232.203C228.263 237.899 227.869 245.907 225.69 249.558L225.992 279.512C225.992 279.512 215.566 282.75 206.84 281.764L205.545 233.698C205.545 233.698 207.433 206.441 208.129 201.212C208.536 198.498 208.702 195.761 208.625 193.025C208.625 193.025 208.328 184.843 207.331 181.046C207.331 181.046 206.252 164.594 206.144 160.04C206.095 157.861 206.23 151.504 206.381 145.459C206.549 138.85 206.737 132.617 206.737 132.617L204.769 119.372C204.769 119.372 206.737 119.202 207.331 119.876C207.596 120.087 207.885 120.276 208.194 120.44C211.591 122.394 223.597 128.402 223.597 128.402C223.597 128.402 230.242 130.65 231.833 133.869C233.424 137.089 234.53 139.373 235.301 140.29C236.072 141.208 236.493 145.519 236.493 145.519C236.493 145.519 238.78 153.454 240.565 154.797C242.35 156.141 243.656 164.69 243.656 164.69L227.88 175.239C227.88 175.239 226.494 192.787 226.197 193.466C225.9 194.145 231.941 209.312 231.941 209.312Z" fill="white"/>
<path d="M232.539 209.312C232.539 209.312 233.526 210.578 232.539 211.169C231.552 211.761 232.631 213.192 232.631 213.192C232.631 213.192 230.172 214.44 231.25 215.549C232.329 216.659 231.65 221.672 231.65 221.672L228.672 225.864C228.672 225.864 228.85 228.566 228.866 232.217C228.866 237.913 228.473 245.921 226.294 249.572L226.59 279.526C226.59 279.526 216.149 282.764 207.433 281.778L206.144 233.712C206.144 233.712 208.032 206.455 208.727 201.226C209.135 198.512 209.299 195.775 209.218 193.039C209.218 193.039 208.921 184.857 207.929 181.059C207.929 181.059 206.85 164.608 206.737 160.053C206.689 157.875 206.829 151.518 206.974 145.473C207.142 138.864 207.33 132.631 207.33 132.631L204.731 119.206C204.731 119.206 207.33 119.206 207.929 119.89C208.192 120.103 208.482 120.293 208.792 120.454C212.19 122.408 224.201 128.416 224.201 128.416C224.201 128.416 230.84 130.663 232.432 133.883C234.023 137.103 235.128 139.387 235.905 140.304C236.682 141.221 237.092 145.533 237.092 145.533C237.092 145.533 239.378 153.467 241.164 154.811C242.949 156.155 244.238 164.686 244.238 164.686L228.462 175.235C228.462 175.235 227.076 192.782 226.774 193.461C226.472 194.14 232.539 209.312 232.539 209.312Z" fill="white"/>
<path opacity="0.1" d="M213.646 136.525L215.07 140.057L207.573 146.478C207.74 139.873 207.929 133.636 207.929 133.636L205.329 120.211C205.329 120.211 207.929 120.211 208.528 120.894C208.79 121.107 209.08 121.295 209.391 121.454L215.766 137.094L213.646 136.525Z" fill="black"/>
<path d="M213.047 135.511L214.477 139.043L206.98 145.464C207.147 138.855 207.336 132.622 207.336 132.622L204.731 119.197C204.731 119.197 207.336 119.197 207.929 119.881C208.194 120.093 208.483 120.282 208.792 120.445L215.172 136.08L213.047 135.511Z" fill="white"/>
<path opacity="0.1" d="M213.047 100.567C213.052 102.22 212.746 103.863 212.141 105.433C212.039 105.447 211.935 105.443 211.835 105.422C211.735 105.4 211.641 105.362 211.559 105.31C211.419 101.182 209.029 97.3062 206.09 94.0085C205.265 93.0129 204.264 92.1311 203.123 91.3943C201.97 90.6578 200.536 90.3128 199.1 90.4265C197.482 90.6146 196.053 91.5502 194.418 91.6695C192.261 91.8208 190.33 90.5504 188.189 90.4862C187.318 90.4932 186.46 90.658 185.67 90.9696C184.881 91.2812 184.178 91.7325 183.61 92.2932C182.485 93.4248 181.649 94.7431 181.156 96.1642C180.308 98.3191 179.846 100.57 179.786 102.842C179.759 104.126 179.613 105.736 178.211 106.204C178.317 105.259 178.19 104.307 177.84 103.406C177.49 102.505 176.924 101.676 176.178 100.971L176.145 100.943C176.145 100.815 176.145 100.696 176.145 100.567C176.103 98.4838 176.55 96.4142 177.458 94.4791C178.367 92.544 179.72 90.7821 181.437 89.2962C183.155 87.8103 185.204 86.6301 187.463 85.8245C189.723 85.0189 192.149 84.604 194.599 84.604C197.049 84.604 199.475 85.0189 201.735 85.8245C203.995 86.6301 206.043 87.8103 207.761 89.2962C209.479 90.7821 210.831 92.544 211.74 94.4791C212.648 96.4142 213.095 98.4838 213.053 100.567H213.047Z" fill="black"/>
<path d="M202.239 75.6489C199.436 74.5279 196.249 74.3158 193.275 75.0527C191.781 75.4288 190.373 76.0388 188.858 76.3461C185.622 77.0111 181.846 76.291 179.069 77.9009C177.526 78.8182 176.598 80.2675 175.735 81.6755L173.578 85.1704C172.402 87.083 171.216 89.0276 170.725 91.1328C170.234 93.238 170.531 95.5954 172.1 97.2878C173.244 98.5216 174.932 99.2967 176.172 100.457C176.915 101.163 177.479 101.992 177.828 102.891C178.177 103.791 178.304 104.742 178.2 105.686C179.608 105.227 179.743 103.613 179.775 102.328C179.835 100.057 180.297 97.8054 181.145 95.6505C181.637 94.229 182.473 92.9105 183.599 91.7795C184.168 91.2192 184.87 90.7683 185.66 90.4567C186.449 90.1451 187.308 89.9801 188.178 89.9724C190.335 90.0366 192.272 91.3025 194.408 91.1511C196.026 91.0365 197.46 90.0963 199.089 89.9128C200.525 89.7972 201.96 90.1424 203.113 90.8806C204.253 91.6163 205.252 92.4983 206.074 93.4948C209.018 96.7925 211.408 100.659 211.548 104.796C212.157 105.177 213.037 104.681 213.339 104.094C213.641 103.507 213.651 102.819 214.034 102.26C214.477 101.613 215.323 101.269 215.987 100.783C217.67 99.5489 218.09 97.4713 218.026 95.5863C217.961 93.7012 217.529 91.7887 217.95 89.9357C218.204 88.7983 218.775 87.7342 219.088 86.6106C219.401 85.4869 219.439 84.2256 218.7 83.2579C217.621 81.8361 215.35 81.5563 213.371 81.4233C211.122 81.2582 209.11 81.4692 207.675 79.8593C207.002 79.0192 206.244 78.2305 205.41 77.5019C205.124 77.2634 202.239 75.7499 202.239 75.6489Z" fill="#512E4E"/>
<path opacity="0.1" d="M143.617 172.368L137.981 163.507L136.196 177.179C136.196 177.179 137.188 183.252 136.989 184.183C136.789 185.114 141.055 193.461 141.055 193.461C141.055 193.461 155.148 214.807 160.903 215.907L180.347 204.093L175.191 198.525C175.191 198.525 173.405 197.933 172.958 198.525C172.958 198.525 163.384 184.518 162.392 183.504C161.399 182.49 161.594 180.468 161.594 180.468C161.594 180.468 160.105 179.119 160.601 177.853C161.097 176.588 157.727 172.198 157.727 172.198L160.801 169.754L143.617 172.368Z" fill="black"/>
<path d="M138.278 162.498L136.789 163.507L135.004 177.179C135.004 177.179 135.996 183.252 135.797 184.183C135.597 185.114 139.869 193.461 139.869 193.461C139.869 193.461 153.957 214.807 159.711 215.907L179.16 204.093L173.999 198.525C173.999 198.525 172.213 197.933 171.766 198.525C171.766 198.525 162.192 184.518 161.2 183.504C160.208 182.49 160.407 180.468 160.407 180.468C160.407 180.468 158.919 179.119 159.415 177.853C159.911 176.588 156.535 172.198 156.535 172.198L159.609 169.754L138.278 162.498Z" fill="white"/>
<path opacity="0.1" d="M230.652 216.059C231.73 217.173 231.051 222.177 231.051 222.177L228.074 226.369C228.074 226.369 228.252 229.075 228.262 232.721L223.257 234.051C222.805 234.171 222.325 234.198 221.858 234.128C221.392 234.059 220.951 233.895 220.574 233.652C220.196 233.408 219.893 233.091 219.689 232.727C219.485 232.363 219.386 231.964 219.401 231.561L220.264 207.89L231.941 211.688C230.948 212.275 232.038 213.715 232.038 213.715C232.038 213.715 229.562 214.944 230.652 216.059Z" fill="black"/>
<path d="M231.25 215.55C232.329 216.664 231.65 221.672 231.65 221.672L228.672 225.865C228.672 225.865 228.85 228.566 228.867 232.217L223.77 233.57C223.327 233.687 222.857 233.712 222.4 233.644C221.943 233.575 221.512 233.415 221.143 233.176C220.774 232.938 220.477 232.627 220.277 232.271C220.077 231.915 219.98 231.524 219.994 231.13L220.863 207.386L232.545 211.183C231.547 211.77 232.637 213.206 232.637 213.206C232.637 213.206 230.172 214.44 231.25 215.55Z" fill="white"/>
<path d="M235.117 204.267C235.117 204.267 234.325 208.574 232.34 208.826C230.355 209.078 229.465 215.793 227.486 215.554C225.506 215.316 226.817 209.312 226.887 208.147C226.957 206.982 224.73 202.157 226.396 201.061C228.063 199.965 233.338 201.061 233.338 201.061L235.117 204.267Z" fill="#CF6F80"/>
<path opacity="0.1" d="M239.341 171.102L243.084 164.681C243.084 164.681 244.572 169.575 244.572 172.189C244.572 174.803 246.654 175.06 246.654 175.06C246.654 175.06 248.936 177.354 247.733 179.023C246.53 180.692 246.045 184.848 246.045 184.848C246.045 184.848 246.438 192.778 244.653 193.874C242.868 194.97 242.496 197.589 242.496 197.589C242.496 197.589 239.217 202.565 239.319 203.749C239.422 204.932 234.756 212.944 234.756 212.944C234.756 212.944 237.038 202.987 223.743 198.685C223.743 198.685 223.64 195.305 224.633 194.378C225.625 193.452 227.173 193.03 226.202 188.347C225.231 183.664 225.922 178.069 225.922 176.945C225.922 175.822 228.899 168.814 228.899 168.814L239.341 171.102Z" fill="black"/>
<path d="M240.958 163.764L244.227 164.681C244.227 164.681 245.721 169.575 245.721 172.189C245.721 174.803 247.803 175.06 247.803 175.06C247.803 175.06 250.084 177.354 248.881 179.023C247.679 180.692 247.199 184.848 247.199 184.848C247.199 184.848 247.592 192.778 245.807 193.874C244.022 194.97 243.623 197.589 243.623 197.589C243.623 197.589 240.349 202.565 240.451 203.749C240.554 204.932 235.883 212.944 235.883 212.944C235.883 212.944 238.17 202.987 224.87 198.685C224.87 198.685 224.773 195.305 225.765 194.378C226.757 193.452 228.305 193.03 227.335 188.347C226.364 183.665 227.054 178.069 227.054 176.945C227.054 175.822 230.031 168.814 230.031 168.814L240.958 163.764Z" fill="white"/>
<path opacity="0.1" d="M168.767 330.192C168.767 330.192 173.977 327.409 177.397 329.431C180.816 331.454 168.767 330.192 168.767 330.192Z" fill="black"/>
<path opacity="0.1" d="M209.25 321.584C209.25 321.584 213.862 321.079 217.734 324.624C221.607 328.17 209.25 321.584 209.25 321.584Z" fill="black"/>
<g opacity="0.1">
<path opacity="0.1" d="M215.998 99.7783C215.334 100.264 214.482 100.613 214.04 101.26C213.662 101.815 213.652 102.498 213.349 103.094C213.047 103.691 212.168 104.177 211.559 103.801C211.419 99.6728 209.024 95.7973 206.084 92.495C205.263 91.4984 204.264 90.6165 203.123 89.8807C201.969 89.1427 200.532 88.7976 199.095 88.913C197.476 89.101 196.053 90.0367 194.418 90.1513C192.261 90.3073 190.325 89.0368 188.184 88.9726C187.313 88.98 186.455 89.1454 185.666 89.4579C184.878 89.7703 184.176 90.2226 183.61 90.7843C182.484 91.9135 181.648 93.2305 181.156 94.6506C180.308 96.8057 179.846 99.0568 179.786 101.329C179.754 102.608 179.613 104.204 178.222 104.681C178.254 105.02 178.254 105.361 178.222 105.699C179.624 105.241 179.764 103.626 179.797 102.342C179.857 100.07 180.319 97.8192 181.167 95.6643C181.659 94.2427 182.495 92.9243 183.621 91.7933C184.188 91.2331 184.89 90.7822 185.678 90.4706C186.467 90.159 187.325 89.9939 188.194 89.9862C190.352 90.0504 192.293 91.3163 194.429 91.1649C196.047 91.0503 197.482 90.1101 199.105 89.9266C200.543 89.8112 201.98 90.1563 203.134 90.8943C204.275 91.6301 205.273 92.512 206.095 93.5086C209.035 96.8063 211.429 100.673 211.57 104.81C212.179 105.19 213.058 104.695 213.36 104.108C213.662 103.521 213.673 102.833 214.051 102.273C214.493 101.627 215.345 101.283 216.008 100.796C217.691 99.5627 218.112 97.4851 218.047 95.6C218.047 95.5404 218.047 95.4808 218.047 95.4258C217.945 97.0585 217.432 98.7234 215.998 99.7783Z" fill="black"/>
<path opacity="0.1" d="M176.183 99.4526C174.943 98.2923 173.249 97.5172 172.111 96.288C171.153 95.1999 170.606 93.89 170.542 92.5317C170.372 94.2291 170.929 95.9215 172.111 97.297C173.249 98.5308 174.943 99.3059 176.183 100.466C177.374 101.601 178.089 103.04 178.217 104.557C178.299 103.634 178.162 102.706 177.812 101.829C177.463 100.951 176.909 100.143 176.183 99.4526Z" fill="black"/>
<path opacity="0.1" d="M219.099 85.6061C218.781 86.7298 218.214 87.7985 217.956 88.9313C217.802 89.6883 217.746 90.4572 217.788 91.2245C217.806 90.7874 217.862 90.3521 217.956 89.922C218.214 88.7845 218.781 87.7205 219.099 86.5968C219.284 85.977 219.345 85.335 219.277 84.698C219.243 85.004 219.184 85.3075 219.099 85.6061Z" fill="black"/>
</g>
<path opacity="0.1" d="M71.5874 348.841C100.612 348.841 124.141 345.627 124.141 341.663C124.141 337.699 100.612 334.485 71.5874 334.485C42.5627 334.485 19.0334 337.699 19.0334 341.663C19.0334 345.627 42.5627 348.841 71.5874 348.841Z" fill="#027373"/>
<path d="M73.281 204.161H69.8993V268.908H73.281V204.161Z" fill="#535461"/>
<path d="M94.5313 268.711L94.321 271.628L94.019 275.756L93.8949 277.471L93.5983 281.599L93.4688 283.314L93.1668 287.442L89.7581 334.256C89.61 336.27 88.5648 338.161 86.8354 339.543C85.106 340.925 82.8222 341.695 80.449 341.695H62.7261C60.3534 341.694 58.0703 340.925 56.3417 339.542C54.6132 338.16 53.5692 336.27 53.4223 334.256L50.0298 287.41L49.7278 283.282L49.6038 281.567L49.3017 277.439L49.1777 275.724L48.8756 271.596L48.6599 268.679C48.6224 268.118 48.7202 267.556 48.9474 267.027C49.1745 266.499 49.5261 266.016 49.9806 265.608C50.4351 265.199 50.983 264.874 51.5906 264.652C52.1982 264.43 52.8527 264.316 53.514 264.317H89.7635C90.4223 264.322 91.0729 264.442 91.6752 264.669C92.2776 264.896 92.8188 265.225 93.2656 265.637C93.7123 266.049 94.0552 266.534 94.2729 267.062C94.4906 267.591 94.5785 268.152 94.5313 268.711Z" fill="#3F3D56"/>
<path d="M94.321 271.628L94.0189 275.742H49.156L48.854 271.628H94.321Z" fill="#9D9CB5"/>
<path d="M93.8947 277.457L93.598 281.576H49.5819L49.2799 277.457H93.8947Z" fill="#9D9CB5"/>
<path d="M93.469 283.296L93.1724 287.41H50.0085L49.7064 283.296H93.469Z" fill="#9D9CB5"/>
<path d="M43.6926 228.428C63.3841 240.546 71.6038 259.497 71.6038 259.497C71.6038 259.497 47.8725 258.804 28.1756 246.687C8.47862 234.57 0.275146 215.623 0.275146 215.623C0.275146 215.623 23.9956 216.311 43.6926 228.428Z" fill="#027373"/>
<path d="M0.258911 215.623C0.258911 215.623 24.8963 227.25 32.7977 236.877C40.6991 246.504 71.6037 259.497 71.6037 259.497" stroke="#535461" stroke-width="2" stroke-miterlimit="10"/>
<path d="M56.4049 204.019C67.1218 210.61 71.6037 220.925 71.6037 220.925C71.6037 220.925 58.6864 220.549 47.9642 213.958C37.2419 207.367 32.7708 197.048 32.7708 197.048C32.7708 197.048 45.6827 197.424 56.4049 204.019Z" fill="#027373"/>
<path d="M32.7708 197.048C32.7708 197.048 46.1789 203.377 50.4775 208.615C54.7761 213.853 71.6037 220.925 71.6037 220.925" stroke="#535461" stroke-width="2" stroke-miterlimit="10"/>
<path d="M87.1639 220.402C74.8507 231.909 72.2456 246.948 72.2456 246.948C72.2456 246.948 89.6072 243.325 101.91 231.813C114.212 220.301 116.828 205.267 116.828 205.267C116.828 205.267 99.4772 208.895 87.1639 220.402Z" fill="#027373"/>
<path d="M116.839 205.271C116.839 205.271 100.799 217.068 96.7212 225.195C92.6437 233.322 72.2456 246.948 72.2456 246.948" stroke="#535461" stroke-width="2" stroke-miterlimit="10"/>
<path d="M539.169 216.352C539.169 216.352 530.264 178.679 533.673 173.992C533.673 173.992 533.797 169.635 533.592 164.08C533.592 163.869 533.592 163.658 533.592 163.443C534.192 163.783 534.817 164.089 535.464 164.36C538.604 165.732 542.21 166.128 545.657 165.479L542.961 162.925C542.313 162.315 541.639 161.654 541.499 160.847C541.359 160.04 541.747 159.32 542.081 158.6C544.643 153.096 544.778 146.175 539.843 141.974C535.674 138.442 534.66 133.883 530.135 130.659C526.829 128.297 525.011 124.834 523.296 121.486C521.845 118.656 520.384 115.803 519.553 112.804C518.906 110.46 518.647 108.034 517.757 105.745C516.867 103.457 515.2 101.232 512.595 100.209C511.668 99.8471 510.638 99.6407 509.791 99.1591C508.68 98.5216 508.011 97.485 507.207 96.5769C503.124 91.9905 489.452 94.6919 482.98 96.554C481.22 97.0229 479.591 97.7906 478.19 98.8105L478.25 98.728C478.298 98.6592 478.358 98.5904 478.412 98.5216C477.703 99.0087 477.091 99.5894 476.599 100.242C475.655 101.512 475.262 102.993 474.474 104.369C473.525 105.998 468.245 110.543 470.515 112.373C470.675 112.496 470.857 112.595 471.055 112.666C471.907 112.968 472.846 113.048 473.752 112.896L473.654 113.093C472.879 114.707 472.481 116.435 472.484 118.179C472.484 125.715 479.792 131.824 488.816 131.824C490.512 131.825 492.198 131.604 493.815 131.168C493.853 131.342 493.885 131.517 493.923 131.691C493.923 131.76 493.95 131.828 493.961 131.897L493.675 132.237C493.661 132.216 493.645 132.196 493.626 132.177L485.159 142.24C483.864 143.015 476.411 147.601 475.99 151.041C475.548 154.807 475.105 159.214 475.105 159.214L475.046 160.159C474.676 160.422 474.243 160.613 473.778 160.72C473.312 160.827 472.825 160.847 472.349 160.778C469.706 160.411 469.706 169.034 469.706 169.034C469.706 169.034 467.948 170.41 466.74 169.217C465.532 168.025 462.339 172.065 462.339 172.065L442.329 172.799L441.871 172.822L440.792 169.983C440.676 169.684 440.426 169.435 440.095 169.292C439.765 169.148 439.382 169.122 439.028 169.217C438.945 169.241 438.864 169.27 438.786 169.304L438.71 169.341L438.57 169.424L438.5 169.479C438.461 169.508 438.425 169.541 438.392 169.575L438.327 169.639L438.295 169.667C438.17 169.813 438.088 169.982 438.054 170.161C438.02 170.339 438.036 170.522 438.101 170.694L439.028 173.129C435.167 173.79 431.219 175.652 434.439 180.78L418.118 178.216L423.398 181.986L450.657 186.77C450.295 187.32 450.533 188.118 451.66 189.242C456.514 194.09 465.359 195.406 468.919 195.745C469.859 197.533 471.033 199.226 472.419 200.79L472.112 205.62C472.112 205.62 463.099 242.431 461.449 244.297C462.282 243.495 463.045 242.641 463.73 241.743C461.115 249.306 457.458 259.657 456.498 261.208C454.955 263.684 453.526 273.706 455.284 274.348C455.824 274.545 457.366 274.449 459.567 274.307V275.137L459.47 306.595C459.47 306.595 459.912 325.89 458.698 327.73C457.485 329.569 457.161 333.426 457.161 333.426C457.161 333.426 452.307 341.035 448.462 344.094C448.435 344.118 448.407 344.139 448.375 344.158L448.257 343.443C448.257 343.443 443.634 348.405 433.408 348.126C433.408 348.126 427.254 351.529 436.38 351.712C445.506 351.896 457.161 351.437 457.161 351.437C457.161 351.437 465.3 340.888 472.117 342.264V350.258H474.205V342.136C475.173 341.594 476.001 340.89 476.64 340.068C477.279 339.246 477.714 338.322 477.921 337.352C478.099 336.352 477.969 335.33 477.541 334.387C477.113 333.444 476.404 332.611 475.483 331.972C475.069 331.654 474.737 331.266 474.508 330.834C474.278 330.401 474.157 329.933 474.151 329.459L474.075 329.514C474.075 329.353 474.027 329.188 474.005 329.018C473.406 324.891 472.657 316.374 475.305 310.072C478.935 301.431 480.035 289.396 477.392 282.232C476.539 279.942 475.839 277.613 475.294 275.256C475.229 274.958 475.17 274.673 475.116 274.407C476.923 274.615 478.712 274.922 480.472 275.325C486.593 276.76 499.985 277.026 511.42 276.948C511.447 277.214 511.479 277.494 511.517 277.774C511.721 279.719 512.147 281.642 512.79 283.516C514.224 287.185 514.882 303.362 514.882 303.362C514.882 303.362 516.732 316.662 515.724 322.074C515.184 325.083 514.645 328.106 514.337 331.142V331.202C514.337 331.202 511.306 338.54 509.09 342.525C509.036 342.626 508.976 342.727 508.922 342.824C508.331 342.869 507.75 342.979 507.191 343.149C507.191 343.149 504.219 348.194 501.258 349.029C498.297 349.864 499.279 352.611 505.983 351.602C512.687 350.593 522.811 349.767 522.811 349.767L523.247 344.621L525.308 342.429L524.768 347.561L526.964 347.194L526.672 340.952L530.043 337.366C530.043 337.366 534.115 334.284 528.064 328.22V328.353C527.999 328.266 527.94 328.174 527.87 328.087V328.06C526.866 326.739 526.068 324.276 527.53 319.905C530.173 312.007 531.71 304.839 531.71 304.839C531.71 304.839 537.61 285.635 530.518 276.549H530.831C530.104 275.271 529.59 273.912 529.304 272.513C529.268 272.348 529.236 272.178 529.207 272.004C534.455 271.747 539.606 270.94 543.807 269.197C543.791 269.179 541.262 223.608 539.169 216.352ZM472.543 184.568V184.66L471.465 184.706L472.543 184.568ZM468.844 185.004C468.666 185.037 468.5 185.105 468.358 185.201C467.894 185.759 467.603 186.407 467.511 187.086L465.829 186.765C465.829 186.765 464.647 186.549 462.948 186.306L462.145 185.618C464.356 185.462 466.654 185.233 468.844 185.004Z" fill="url(#paint1_linear)"/>
<path d="M524.52 341.017L523.878 347.516L526.03 347.149L525.707 340.099L524.52 341.017Z" fill="#1D2366"/>
<path d="M475.424 310.159C472.829 316.442 473.563 324.923 474.145 329.041C474.361 330.564 474.561 331.49 474.561 331.49C474.561 331.49 470.683 339.003 470.359 339.287C470.036 339.572 458.947 345.328 458.947 345.328L451.196 349.176C451.196 349.176 443.333 346.245 447.103 345.236C447.873 344.973 448.567 344.571 449.136 344.057C452.911 341.007 457.652 333.426 457.652 333.426C457.652 333.426 457.976 329.578 459.162 327.748C460.349 325.918 459.917 306.687 459.917 306.687L460.009 275.339V271.252L474.76 271.344C474.853 272.731 475.066 274.111 475.397 275.472C475.926 277.82 476.612 280.142 477.452 282.425C480.051 289.575 478.973 301.55 475.424 310.159Z" fill="#FFB0B1"/>
<path opacity="0.1" d="M474.561 331.49C474.561 331.49 470.683 339.003 470.359 339.287C470.036 339.572 458.947 345.328 458.947 345.328L451.196 349.176C451.196 349.176 443.333 346.245 447.103 345.236C447.873 344.973 448.567 344.571 449.136 344.057L449.47 346.062L452.054 345.97L474.167 329.05C474.361 330.564 474.561 331.49 474.561 331.49Z" fill="black"/>
<path d="M474.291 329.477L452.054 346.511L449.47 346.603L448.931 343.392C448.931 343.392 444.411 348.337 434.368 348.061C434.368 348.061 428.338 351.451 437.275 351.634C446.212 351.818 457.625 351.359 457.625 351.359C457.625 351.359 465.597 340.81 472.268 342.186V350.153H474.318V342.113C475.271 341.567 476.084 340.863 476.709 340.044C477.334 339.224 477.757 338.305 477.953 337.343C478.131 336.351 478.005 335.338 477.588 334.4C477.172 333.461 476.478 332.63 475.575 331.986C475.171 331.664 474.849 331.275 474.628 330.844C474.407 330.413 474.293 329.947 474.291 329.477Z" fill="#1D2366"/>
<path d="M526.57 319.956C525.135 324.313 525.917 326.766 526.899 328.083V328.11C528.158 329.736 529.033 331.553 529.477 333.463L529.563 333.875L519.445 346.419L513.954 348.254C513.954 348.254 505.125 345.69 506.738 344.956C507.142 344.777 507.773 343.823 508.496 342.507C510.654 338.54 513.631 331.22 513.631 331.22V331.16C513.944 328.138 514.44 325.124 514.99 322.125C515.977 316.727 514.165 303.476 514.165 303.476C514.165 303.476 513.518 287.364 512.115 283.7C511.482 281.836 511.061 279.926 510.859 277.994C510.567 275.701 510.503 273.811 510.503 273.811C510.503 273.811 516.317 266.932 526.974 274.362C527.827 274.954 528.576 275.646 529.202 276.416C536.564 285.323 530.636 304.944 530.636 304.944C530.636 304.944 529.153 312.081 526.57 319.956Z" fill="#FFB0B1"/>
<path opacity="0.1" d="M529.579 333.875L519.461 346.419L513.971 348.254C513.971 348.254 505.142 345.69 506.754 344.956C507.159 344.777 507.79 343.823 508.513 342.507C512.25 342.48 514.186 345.507 514.186 345.507L518.922 344.865C518.922 344.865 525.168 334.426 526.57 333.788C527.972 333.151 526.786 329.023 526.786 329.023V327.973C526.823 328.009 526.856 328.051 526.899 328.087V328.115C528.158 329.74 529.033 331.558 529.477 333.467L529.579 333.875Z" fill="black"/>
<path d="M514.51 345.777C514.51 345.777 511.813 341.567 506.646 343.122C506.646 343.122 503.739 348.167 500.832 348.983C497.925 349.8 498.896 352.551 505.465 351.547C512.035 350.543 521.937 349.712 521.937 349.712L522.368 344.58L529.046 337.347C529.046 337.347 533.026 334.279 527.104 328.239V329.289C527.104 329.289 528.291 333.417 526.888 334.054C525.486 334.692 519.262 345.135 519.262 345.135L514.51 345.777Z" fill="#1D2366"/>
<path opacity="0.1" d="M474.776 271.335C474.869 272.722 475.082 274.101 475.413 275.462C469.34 274.706 463.704 275.082 460.009 275.329V271.243L474.776 271.335Z" fill="black"/>
<path opacity="0.1" d="M529.8 277.558C529.8 277.558 521.171 277.916 510.88 277.989C510.589 275.696 510.524 273.807 510.524 273.807C510.524 273.807 516.338 266.927 526.996 274.357C527.848 274.95 528.598 275.641 529.223 276.412C529.39 276.803 529.583 277.186 529.8 277.558Z" fill="black"/>
<path d="M529.801 276.733C529.801 276.733 492.003 278.288 480.483 275.54C468.962 272.793 457.544 275.173 455.824 274.536C454.103 273.898 455.5 263.914 457.01 261.442C458.521 258.969 466.805 233.969 466.805 233.969L474.777 198.625L483.174 196.658L483.767 196.516L498.4 193.085L509.122 190.567C509.122 190.567 530.442 261.35 528.614 266.569C527.95 268.568 527.843 270.671 528.301 272.71C528.581 274.104 529.085 275.457 529.801 276.733Z" fill="#1D2366"/>
<path d="M446.989 174.455C446.989 174.455 439.438 181.335 445.155 185.169C450.872 189.003 454.632 185.536 454.632 185.536L446.989 174.455Z" fill="#C7DAF5"/>
<path opacity="0.1" d="M446.989 174.455C446.989 174.455 439.438 181.335 445.155 185.169C450.872 189.003 454.632 185.536 454.632 185.536L446.989 174.455Z" fill="black"/>
<path d="M507.995 129.223C507.995 129.223 507.11 129.939 505.778 130.994C503.879 132.503 501.07 134.709 498.578 136.557C495.126 139.112 492.278 140.988 493.298 139.387C494.317 137.786 494.123 134.998 493.616 132.388C493.578 132.214 493.546 132.039 493.508 131.87C493.088 129.953 492.532 128.06 491.841 126.201C491.841 126.201 497.418 120.073 500.503 117.656C501.652 116.739 502.456 116.363 502.504 117C502.558 117.858 503.313 119.752 504.252 121.761C504.279 121.825 504.306 121.885 504.338 121.949C504.964 123.325 505.67 124.738 506.29 125.958C507.24 127.829 507.995 129.223 507.995 129.223Z" fill="#FFB0B1"/>
<path opacity="0.1" d="M504.338 121.949C503.814 124.346 502.542 126.58 500.656 128.416C498.77 130.252 496.339 131.624 493.616 132.388C493.187 130.294 492.594 128.227 491.841 126.201C491.841 126.201 502.342 114.666 502.504 117C502.542 117.886 503.362 119.849 504.338 121.949Z" fill="black"/>
<path opacity="0.1" d="M492.569 135.47L493.929 133.842C493.929 133.842 494.829 138.511 498.141 136.452C501.452 134.392 501.614 151.949 501.614 151.949L498.06 197.139L472.376 195.832L473.104 173.996L476.011 162.989L483.201 146.987L487.478 141.698L492.569 135.47Z" fill="black"/>
<path d="M501.614 152.229L498.378 193.09L498.039 197.419L483.719 196.69L483.18 196.663L472.393 196.112L473.121 174.271L476.028 163.264L483.217 147.262L487.494 141.974L492.586 135.722L493.945 134.099C493.945 134.099 494.846 138.768 498.157 136.708L498.227 136.667C501.463 134.924 501.614 152.229 501.614 152.229Z" fill="#1D2366"/>
<path d="M476.389 159.439C476.389 159.439 475.1 161.732 472.511 161.361C469.922 160.989 469.928 169.616 469.928 169.616C469.928 169.616 468.207 170.992 467.02 169.8C465.834 168.607 462.706 172.639 462.706 172.639L443.106 173.373C443.106 173.373 451.827 176.762 450.117 187.017C450.117 187.017 479.727 185.458 480.698 183.077C481.669 180.697 476.389 159.439 476.389 159.439Z" fill="white"/>
<path opacity="0.03" d="M476.389 159.439C476.389 159.439 475.1 161.732 472.511 161.361C469.922 160.989 469.928 169.616 469.928 169.616C469.928 169.616 468.207 170.992 467.02 169.8C465.834 168.607 462.706 172.639 462.706 172.639L443.106 173.373C443.106 173.373 451.827 176.762 450.117 187.017C450.117 187.017 479.727 185.458 480.698 183.077C481.669 180.697 476.389 159.439 476.389 159.439Z" fill="black"/>
<path d="M419.429 178.762L424.596 182.513L467.128 190.113L461.854 185.536L419.429 178.762Z" fill="white"/>
<path d="M492.65 136.915C491.944 137.832 489.921 142.529 488.233 146.629C486.825 150.046 485.649 153.05 485.649 153.05C485.649 153.05 482.904 168.249 481.502 170.997C480.1 173.744 480.86 184.458 480.86 184.458L475.634 210.917C475.634 210.917 473.266 224.562 469.609 232.712C466.001 240.734 461.983 244.495 461.859 244.614C463.477 242.752 472.295 206.088 472.295 206.088L475.208 159.847C475.208 159.847 475.634 155.453 476.065 151.697C476.497 147.941 485.234 142.813 485.234 142.813L493.659 132.626C494.506 133.59 493.939 135.268 492.65 136.915Z" fill="white"/>
<path d="M470.683 196.341C470.683 196.341 458.278 195.883 452.269 189.746C446.261 183.609 466.157 187.297 466.157 187.297L471.33 188.306L470.683 196.341Z" fill="#FFB0B1"/>
<path opacity="0.1" d="M528.614 266.574C527.95 268.572 527.843 270.675 528.301 272.715C514.769 273.531 500.293 270.422 500.293 270.422C497.596 272.532 490.493 275.641 490.493 275.641L486.62 234.822C484.145 229.318 483.174 200.483 483.174 200.483C483.174 200.483 483.395 198.974 483.713 196.713C483.713 196.658 483.713 196.598 483.74 196.543C484.706 190.228 486.62 178.372 487.559 176.771C488.853 174.569 483.578 168.713 483.578 168.713L485.978 151.307L486.27 149.206C491.329 147.285 495.207 141.148 495.207 141.148L498.184 136.713C501.42 134.947 501.587 152.252 501.587 152.252L498.351 193.113L509.073 190.595C509.073 190.595 530.442 261.354 528.614 266.574Z" fill="black"/>
<path d="M542.502 269.394C527.751 275.623 500.94 269.853 500.94 269.853C498.243 271.963 491.14 275.073 491.14 275.073L487.262 234.253C484.792 228.749 483.821 199.914 483.821 199.914C483.821 199.914 486.939 178.399 488.233 176.202C488.611 175.56 488.427 174.606 487.979 173.579C485.779 168.689 484.969 163.426 485.617 158.219L486.653 150.738L486.939 148.642C492.003 146.716 495.881 140.579 495.881 140.579L498.578 136.562L503.54 129.159L505.891 125.655L506.29 125.962L509.338 128.311C509.338 128.311 510.632 129.228 512.574 130.604C516.797 133.631 524.094 138.96 527.859 142.221C531.17 145.092 532.217 156.26 532.519 164.667C532.718 170.203 532.6 174.542 532.6 174.542C529.261 179.216 537.993 216.737 537.993 216.737C540.027 223.989 542.502 269.394 542.502 269.394Z" fill="white"/>
<path opacity="0.03" d="M514.186 140.488C514.186 140.488 504.063 156.875 505.239 163.103C506.414 169.332 509.758 176.381 508.146 178.028C507.592 178.652 506.875 179.158 506.053 179.507C505.23 179.856 504.324 180.039 503.405 180.041C501.787 180.133 497.472 182.697 497.472 182.972C497.472 183.247 493.486 183.247 489.921 184.531C486.356 185.816 481.092 186.545 481.092 186.545C481.092 186.545 470.844 186.27 469.89 187.095C468.935 187.921 467.953 192.86 469.998 196.8C472.042 200.74 474.312 203.68 476.028 204.216C477.743 204.753 488.627 201.653 497.456 200.919C506.285 200.185 515.869 194.236 515.869 194.236C515.869 194.236 526.424 191.026 528.274 185.627C530.124 180.229 526.014 150.559 526.014 150.559C526.014 150.559 522.908 136.731 514.186 140.488Z" fill="black"/>
<path opacity="0.03" d="M512.892 139.112C512.892 139.112 502.768 155.504 503.955 161.727C505.142 167.951 508.475 175.005 506.857 176.656C506.305 177.281 505.589 177.788 504.768 178.137C503.946 178.487 503.04 178.669 502.121 178.67C500.503 178.762 496.188 181.325 496.188 181.601C496.188 181.876 492.203 181.876 488.637 183.155C485.072 184.435 479.808 185.169 479.808 185.169C479.808 185.169 469.561 184.894 468.612 185.719C467.662 186.545 466.67 191.489 468.719 195.424C470.769 199.359 473.034 202.304 474.749 202.84C476.464 203.377 487.348 200.277 496.178 199.547C505.007 198.818 514.591 192.86 514.591 192.86C514.591 192.86 525.141 189.65 526.969 184.256C528.797 178.862 524.709 149.183 524.709 149.183C524.709 149.183 521.613 135.36 512.892 139.112Z" fill="black"/>
<path d="M513.868 139.662C513.868 139.662 503.745 156.054 504.931 162.278C506.118 168.502 509.451 175.556 507.838 177.202C507.286 177.828 506.571 178.336 505.748 178.687C504.925 179.037 504.018 179.22 503.097 179.22C501.479 179.312 497.165 181.876 497.165 182.146C497.165 182.417 493.184 182.422 489.614 183.706C486.043 184.99 480.785 185.719 480.785 185.719C480.785 185.719 470.537 185.444 469.582 186.27C468.628 187.095 467.646 192.039 469.69 195.975C471.734 199.91 474.005 202.854 475.72 203.391C477.435 203.927 488.319 200.827 497.148 200.093C505.978 199.359 515.562 193.411 515.562 193.411C515.562 193.411 526.117 190.2 527.967 184.802C529.817 179.404 525.734 149.734 525.734 149.734C525.734 149.734 522.584 135.929 513.868 139.662Z" fill="white"/>
<path opacity="0.1" d="M513.647 183.628C513.647 183.628 505.557 182.252 508.372 184.545C511.188 186.838 511.172 188.847 514.618 188.755C518.064 188.664 513.647 183.628 513.647 183.628Z" fill="black"/>
<path opacity="0.1" d="M527.32 232.969C527.32 232.969 523.663 235.074 530.658 239.926C537.654 244.779 527.32 232.969 527.32 232.969Z" fill="black"/>
<path opacity="0.1" d="M520.34 250.274C520.34 250.549 519.046 260.364 523.889 262.817C528.732 265.271 520.34 250.274 520.34 250.274Z" fill="black"/>
<path d="M443.44 173.35C439.535 173.464 431.1 174.478 435.474 181.417C439.341 187.558 445.841 183.454 449.497 180.339C448.605 177.436 446.437 174.934 443.44 173.35Z" fill="#FFB0B1"/>
<path d="M449.546 180.286L449.708 180.142L449.546 180.286Z" fill="#FFB0B1"/>
<path opacity="0.1" d="M512.574 130.884C508.432 133.292 504.958 135.323 504.279 135.745C502.423 136.915 498.885 143.781 496.604 147.285C494.786 150.105 488.88 150.83 486.653 151.009L486.939 148.913C492.003 146.987 495.881 140.85 495.881 140.85L505.891 125.926L509.338 128.59C509.338 128.59 510.632 129.508 512.574 130.884Z" fill="black"/>
<path d="M512.574 130.608C508.432 133.016 504.958 135.048 504.279 135.475C502.423 136.64 498.885 143.506 496.604 147.01C494.786 149.83 488.88 150.555 486.653 150.734L486.939 148.638C492.003 146.711 495.881 140.575 495.881 140.575L505.891 125.65L509.338 128.306C509.338 128.306 510.632 129.214 512.574 130.608Z" fill="#DCE7FF"/>
<path d="M504.602 118.922C504.605 121.675 503.623 124.364 501.787 126.632C499.619 129.313 496.392 131.245 492.692 132.076C488.993 132.908 485.065 132.584 481.622 131.163C478.179 129.743 475.449 127.32 473.928 124.334C472.406 121.349 472.193 117.998 473.328 114.89C474.463 111.783 476.87 109.124 480.113 107.396C483.356 105.669 487.22 104.987 491.003 105.475C494.787 105.963 498.239 107.587 500.734 110.055C503.229 112.522 504.602 115.668 504.602 118.922Z" fill="#FFB0B1"/>
<path opacity="0.1" d="M532.519 164.672C530.328 163.526 528.544 161.897 527.357 159.957C526.456 158.444 525.858 156.696 524.321 155.623C522.934 154.66 521.084 154.426 519.359 153.995C513.685 152.568 508.928 148.165 508.75 143.139C508.663 140.772 509.532 138.41 509.138 136.066C508.914 134.74 508.294 133.484 507.336 132.42C506.861 131.911 506.34 131.434 505.778 130.994C505.023 130.388 504.23 129.801 503.539 129.159C503.105 128.761 502.725 128.323 502.407 127.852C502.15 127.466 501.942 127.059 501.787 126.636C500.708 123.83 501.69 120.5 500.503 117.661L500.438 117.505C499.991 116.496 499.079 115.487 497.812 115.409C496.544 115.331 495.46 116.225 494.252 116.624C491.722 117.459 488.993 116.037 486.884 114.588C484.776 113.139 482.397 111.483 479.717 111.804C477.942 112.019 476.54 113.047 474.906 113.579C474.537 113.7 474.156 113.794 473.768 113.859C475.151 110.926 477.692 108.494 480.954 106.981C484.216 105.468 487.997 104.968 491.645 105.568C495.294 106.168 498.583 107.829 500.947 110.267C503.312 112.705 504.604 115.767 504.602 118.927C504.604 119.881 504.486 120.833 504.251 121.766C504.278 121.83 504.305 121.89 504.338 121.954C504.963 123.33 505.67 124.742 506.29 125.962L509.337 128.311C509.337 128.311 510.632 129.228 512.574 130.604C516.797 133.631 524.094 138.96 527.859 142.221C531.17 145.102 532.206 156.265 532.519 164.672Z" fill="black"/>
<path d="M474.717 105.199C475.488 103.865 475.871 102.37 476.794 101.104C478.147 99.2692 480.51 98.095 482.937 97.3841C489.274 95.5266 502.666 92.8298 506.668 97.3841C507.456 98.3014 508.108 99.3196 509.198 99.9525C510.028 100.434 511.031 100.641 511.943 101.003C514.494 102.021 516.123 104.241 516.991 106.507C517.86 108.772 518.118 111.203 518.755 113.538C519.569 116.533 520.999 119.372 522.422 122.192C524.1 125.522 525.88 128.976 529.116 131.328C533.533 134.539 534.509 139.084 538.608 142.607C543.462 146.789 543.306 153.692 540.803 159.173C540.474 159.893 540.102 160.645 540.232 161.411C540.361 162.177 541.03 162.874 541.661 163.484L544.314 166.03C538.036 167.318 530.933 164.53 528.01 159.636C527.109 158.122 526.511 156.38 524.968 155.302C523.587 154.339 521.732 154.109 520.012 153.678C514.338 152.247 509.581 147.84 509.403 142.813C509.316 140.451 510.185 138.089 509.791 135.75C509.572 134.414 508.949 133.15 507.984 132.081C506.501 130.434 504.263 129.329 503.054 127.494C501.01 124.426 502.564 120.44 501.091 117.147C500.638 116.138 499.732 115.129 498.465 115.051C497.197 114.973 496.113 115.868 494.9 116.267C492.375 117.101 489.646 115.684 487.537 114.23C485.429 112.776 483.05 111.125 480.364 111.451C478.59 111.662 477.193 112.689 475.558 113.226C474.35 113.62 471.902 113.973 470.845 113.106C468.612 111.359 473.784 106.832 474.717 105.199Z" fill="#591D4B"/>
<path opacity="0.1" d="M529.509 158.123C528.603 156.609 528.01 154.866 526.467 153.793C525.087 152.83 523.231 152.596 521.505 152.165C515.837 150.738 511.08 146.331 510.897 141.304C510.81 138.942 511.679 136.575 511.29 134.236C511.064 132.91 510.442 131.654 509.483 130.59C507.995 128.944 505.757 127.838 504.554 126.004C502.51 122.94 504.063 118.954 502.585 115.657C502.138 114.652 501.226 113.643 499.964 113.561C498.702 113.478 497.607 114.382 496.399 114.781C493.875 115.615 491.14 114.194 489.037 112.744C486.933 111.295 484.544 109.639 481.864 109.96C480.089 110.176 478.687 111.203 477.058 111.735C475.85 112.13 473.396 112.487 472.339 111.621C470.117 109.786 475.289 105.268 476.217 103.645C476.988 102.305 477.371 100.815 478.298 99.549C478.347 99.4802 478.401 99.4114 478.455 99.3426C477.761 99.8314 477.162 100.41 476.68 101.058C475.758 102.324 475.375 103.81 474.604 105.154C473.671 106.777 468.499 111.309 470.726 113.129C471.805 114.001 474.232 113.643 475.44 113.249C477.058 112.712 478.471 111.685 480.245 111.474C482.942 111.148 485.315 112.804 487.419 114.253C489.522 115.702 492.273 117.124 494.786 116.29C495.994 115.891 497.052 114.992 498.346 115.074C499.64 115.157 500.503 116.161 500.973 117.17C502.445 120.463 500.892 124.449 502.936 127.517C504.144 129.32 506.382 130.448 507.865 132.104C508.831 133.173 509.453 134.437 509.672 135.773C510.066 138.112 509.198 140.474 509.284 142.836C509.462 147.881 514.219 152.27 519.893 153.701C521.603 154.132 523.469 154.362 524.849 155.325C526.397 156.403 527.007 158.145 527.891 159.659C530.815 164.553 537.918 167.341 544.196 166.053L542.945 164.851C537.503 164.92 531.996 162.287 529.509 158.123Z" fill="black"/>
<path opacity="0.1" d="M492.327 137.19C491.62 138.107 489.598 142.804 487.909 146.904C486.329 146.381 484.895 143.047 484.895 143.047L493.319 132.856C494.182 133.865 493.616 135.539 492.327 137.19Z" fill="black"/>
<path d="M492.65 136.915C491.944 137.832 489.921 142.529 488.233 146.629C486.653 146.111 485.218 142.772 485.218 142.772L493.643 132.585C494.506 133.59 493.939 135.268 492.65 136.915Z" fill="#DCE7FF"/>
<path d="M443.667 183.77L438.996 171.244C438.941 171.098 438.92 170.943 438.935 170.79C438.95 170.636 439.001 170.487 439.084 170.35C439.167 170.213 439.281 170.092 439.42 169.993C439.558 169.893 439.718 169.818 439.891 169.772C440.239 169.68 440.615 169.708 440.938 169.851C441.262 169.993 441.506 170.239 441.617 170.533L446.288 183.045L445.824 185.664L443.667 183.77Z" fill="#BE8B87"/>
<path opacity="0.1" d="M439.438 170.144C439.787 170.05 440.164 170.077 440.489 170.22C440.813 170.363 441.058 170.609 441.17 170.905L445.84 183.417L445.49 185.38L445.83 185.683L446.293 183.064L441.596 170.552C441.484 170.257 441.24 170.012 440.917 169.869C440.594 169.726 440.217 169.698 439.87 169.79C439.577 169.871 439.325 170.033 439.152 170.249C439.244 170.207 439.34 170.172 439.438 170.144Z" fill="white"/>
<path d="M443.667 183.77L446.288 183.064L445.905 185.21L445.824 185.683L445.058 185.004L443.667 183.77Z" fill="#EFC8C4"/>
<path d="M445.058 185.004C445.104 184.955 445.161 184.914 445.226 184.884C445.264 184.864 445.308 184.853 445.352 184.853C445.397 184.853 445.441 184.864 445.479 184.884C445.516 184.922 445.547 184.964 445.571 185.008C445.606 185.059 445.655 185.102 445.713 185.135C445.771 185.167 445.836 185.188 445.905 185.196L445.824 185.655L445.058 185.004Z" fill="#727A9C"/>
<path d="M438.969 175.693C438.969 175.693 448.337 175.647 446.131 179.037C443.926 182.426 440.479 182.834 440.479 182.834L438.969 175.693Z" fill="#FFB0B1"/>
<path d="M380.703 23.5836H380.299C364.205 23.5836 349.971 30.8256 341.784 41.512C333.597 30.8256 319.363 23.5836 303.269 23.5836H302.865C290.787 23.6814 279.242 27.8288 270.739 35.1243C262.237 42.4199 257.464 52.2741 257.457 62.5455C257.457 75.3004 264.026 93.3985 276.836 108.291C301.241 136.667 341.784 161.494 341.784 161.494C341.784 161.494 382.327 136.672 406.727 108.291C419.542 93.3985 426.106 75.3004 426.106 62.5455C426.099 52.2749 421.327 42.4213 412.825 35.1259C404.324 27.8305 392.781 23.6826 380.703 23.5836ZM374.916 110.474C373.083 110.468 371.295 109.991 369.787 109.105C368.279 108.22 367.12 106.967 366.465 105.511H356.843C356.209 105.508 355.592 105.336 355.079 105.021C354.566 104.705 354.181 104.261 353.979 103.75L351.023 96.1779L341.671 123.967C341.489 124.502 341.107 124.972 340.584 125.307C340.061 125.642 339.424 125.824 338.769 125.825H338.58C337.897 125.797 337.246 125.57 336.735 125.183C336.225 124.795 335.886 124.271 335.776 123.697L326.138 74.4015L319.094 103.571C318.932 104.125 318.557 104.618 318.028 104.969C317.499 105.321 316.847 105.512 316.176 105.511H302.622C302.216 105.526 301.81 105.471 301.43 105.348C301.049 105.226 300.702 105.04 300.408 104.801C300.115 104.561 299.881 104.274 299.721 103.956C299.562 103.638 299.48 103.296 299.48 102.95C299.48 102.604 299.562 102.262 299.721 101.944C299.881 101.626 300.115 101.338 300.408 101.099C300.702 100.86 301.049 100.673 301.43 100.551C301.81 100.429 302.216 100.374 302.622 100.388H313.803L323.781 61.1695C323.944 60.5897 324.34 60.0762 324.9 59.717C325.459 59.3577 326.148 59.1749 326.849 59.1998C327.55 59.2247 328.218 59.4558 328.741 59.8536C329.263 60.2513 329.607 60.7911 329.713 61.3805L339.557 111.666L347.938 86.8032C348.112 86.2796 348.481 85.818 348.99 85.4873C349.498 85.1567 350.119 84.9747 350.759 84.9686H350.818C351.452 84.9688 352.07 85.1392 352.583 85.4554C353.096 85.7717 353.479 86.2177 353.677 86.7298L359.022 100.402H366.346C366.867 99.0567 367.814 97.8598 369.085 96.9436C370.355 96.0273 371.898 95.4273 373.544 95.2097C375.19 94.9921 376.874 95.1655 378.411 95.7106C379.949 96.2558 381.279 97.1515 382.255 98.299C383.232 99.4464 383.816 100.801 383.945 102.213C384.073 103.625 383.74 105.04 382.982 106.302C382.225 107.563 381.072 108.622 379.652 109.361C378.231 110.101 376.598 110.492 374.932 110.492L374.916 110.474Z" fill="#027373"/>
</g>
<defs>
<linearGradient id="paint0_linear" x1="192.186" y1="355.39" x2="192.186" y2="73.1677" gradientUnits="userSpaceOnUse">
<stop stop-color="#808080" stop-opacity="0.25"/>
<stop offset="0.54" stop-color="#808080" stop-opacity="0.12"/>
<stop offset="1" stop-color="#808080" stop-opacity="0.1"/>
</linearGradient>
<linearGradient id="paint1_linear" x1="120391" y1="212941" x2="120391" y2="68073.4" gradientUnits="userSpaceOnUse">
<stop stop-color="#808080" stop-opacity="0.25"/>
<stop offset="0.54" stop-color="#808080" stop-opacity="0.12"/>
<stop offset="1" stop-color="#808080" stop-opacity="0.1"/>
</linearGradient>
<clipPath id="clip0">
<rect width="596" height="359" fill="white"/>
</clipPath>
</defs>
</svg>
